<svg width="357" height="631" viewBox="0 0 357 631" fill="none" xmlns="http://www.w3.org/2000/svg">
<path d="M527.858 14.0448C583.365 33.3012 628.129 77.9762 657.673 128.043C688.112 177.339 704.227 232.798 710.494 291.338C716.761 349.877 712.285 410.728 685.427 466.186C658.568 520.874 609.328 570.171 547.554 598.67C485.779 627.17 412.367 635.643 342.535 628.711C272.703 621.778 207.348 600.981 165.27 562.468C123.192 524.726 104.391 469.267 75.7418 420.741C47.9881 372.215 12.177 329.85 2.32889 283.635C-6.6239 237.42 11.2817 185.812 38.14 135.746C64.9984 85.6787 99.9143 35.612 151.84 14.815C202.871 -5.98193 270.913 0.950382 338.058 1.72064C405.204 1.72064 472.35 -4.44141 527.858 14.0448Z" fill="url(#paint0_linear_39_127)"/>
<defs>
<linearGradient id="paint0_linear_39_127" x1="0" y1="631" x2="626.32" y2="-76.7115" gradientUnits="userSpaceOnUse">
<stop stop-color="#FF8A00"/>
<stop offset="1" stop-color="#FF8A00"/>
</linearGradient>
</defs>
</svg>
